<svg xmlns="http://www.w3.org/2000/svg" viewBox="0 0 500 700">
<g fill="none" stroke="#0A1628">
  <path d="M50,650 C120,580 280,420 460,60" stroke-width="2" stroke-opacity="0.15" />
<g stroke-width="1.2" stroke-opacity="0.10">
  <path d="M61.2,638.8 Q-0.7,615.8 -62.6,641.5" />
  <path d="M68.2,631.7 Q-1.1,606.9 -70.4,635.3" />
  <path d="M75.6,624.2 Q0.6,598.1 -74.4,628.8" />
  <path d="M83.4,616.1 Q11.7,591.4 -60.0,621.4" />
  <path d="M91.7,607.5 Q16.3,582.4 -59.1,614.1" />
  <path d="M100.3,598.4 Q28.0,574.7 -44.2,605.7" />
  <path d="M109.3,588.7 Q33.8,564.8 -41.7,597.6" />
  <path d="M118.7,578.4 Q40.9,554.7 -36.9,588.9" />
  <path d="M128.4,567.6 Q38.3,541.7 -51.8,581.4" />
  <path d="M138.5,556.2 Q42.7,529.9 -53.2,572.6" />
  <path d="M148.9,544.1 Q51.8,518.6 -45.3,562.6" />
  <path d="M159.7,531.5 Q56.8,505.8 -46.1,553.0" />
  <path d="M170.8,518.1 Q76.4,495.2 -18.0,539.8" />
  <path d="M182.1,504.2 Q85.8,481.8 -10.5,528.2" />
  <path d="M193.8,489.5 Q94.0,467.6 -5.9,516.5" />
  <path d="M205.8,474.1 Q104.1,453.1 2.4,503.8" />
  <path d="M218.0,458.1 Q117.5,438.3 17.0,489.5" />
  <path d="M230.6,441.3 Q137.0,423.5 43.4,472.5" />
  <path d="M243.3,423.8 Q153.1,407.5 62.8,455.8" />
  <path d="M256.4,405.5 Q155.7,389.0 55.0,443.3" />
  <path d="M269.6,386.4 Q172.5,371.4 75.5,425.0" />
  <path d="M283.1,366.6 Q185.5,352.6 87.8,407.4" />
  <path d="M296.8,345.9 Q195.0,332.7 93.1,390.7" />
  <path d="M310.8,324.5 Q226.0,313.5 141.3,363.5" />
  <path d="M324.9,302.2 Q229.6,291.5 134.3,348.2" />
  <path d="M339.2,279.0 Q252.1,269.8 165.1,322.9" />
  <path d="M353.7,255.0 Q269.6,246.8 185.5,299.2" />
  <path d="M368.4,230.1 Q289.8,223.0 211.3,273.0" />
  <path d="M383.2,204.3 Q297.9,197.9 212.6,252.7" />
  <path d="M398.1,177.6 Q318.0,172.2 237.9,224.8" />
  <path d="M413.3,150.0 Q343.2,145.3 273.1,192.7" />
  <path d="M428.5,121.4 Q361.8,117.4 295.1,163.5" />
  <path d="M61.2,638.8 Q79.5,695.8 97.9,801.5" />
  <path d="M68.2,631.7 Q87.9,692.2 107.6,803.8" />
  <path d="M75.6,624.2 Q98.3,693.4 121.1,819.3" />
  <path d="M83.4,616.1 Q106.9,686.0 130.3,812.9" />
  <path d="M91.7,607.5 Q114.1,672.4 136.4,791.4" />
  <path d="M100.3,598.4 Q125.3,669.5 150.3,798.7" />
  <path d="M109.3,588.7 Q138.3,669.5 167.3,814.7" />
  <path d="M118.7,578.4 Q147.6,656.7 176.5,797.9" />
  <path d="M128.4,567.6 Q157.2,643.0 185.9,779.6" />
  <path d="M138.5,556.2 Q172.5,643.6 206.5,800.0" />
  <path d="M148.9,544.1 Q185.6,635.8 222.2,799.4" />
  <path d="M159.7,531.5 Q192.1,609.4 224.5,750.8" />
  <path d="M170.8,518.1 Q209.7,609.8 248.6,774.1" />
  <path d="M182.1,504.2 Q222.6,596.8 263.1,762.9" />
  <path d="M193.8,489.5 Q230.1,569.5 266.4,715.0" />
  <path d="M205.8,474.1 Q245.8,560.2 285.8,715.9" />
  <path d="M218.0,458.1 Q261.6,549.3 305.1,713.9" />
  <path d="M230.6,441.3 Q269.1,519.1 307.6,661.8" />
  <path d="M243.3,423.8 Q284.7,505.2 326.1,654.2" />
  <path d="M256.4,405.5 Q302.6,494.4 348.8,656.2" />
  <path d="M269.6,386.4 Q311.8,464.8 353.9,609.2" />
  <path d="M283.1,366.6 Q325.1,442.5 367.2,583.1" />
  <path d="M296.8,345.9 Q340.6,423.0 384.4,565.9" />
  <path d="M310.8,324.5 Q355.5,401.2 400.2,543.7" />
  <path d="M324.9,302.2 Q367.7,373.5 410.6,507.3" />
  <path d="M339.2,279.0 Q380.7,346.1 422.2,473.0" />
  <path d="M353.7,255.0 Q399.8,328.1 445.9,465.6" />
  <path d="M368.4,230.1 Q408.1,290.8 447.8,407.5" />
  <path d="M383.2,204.3 Q422.6,262.9 462.0,376.5" />
  <path d="M398.1,177.6 Q437.8,235.1 477.4,347.1" />
  <path d="M413.3,150.0 Q449.2,200.3 485.1,300.2" />
  <path d="M428.5,121.4 Q466.5,173.6 504.5,277.1" />
</g>
<g stroke-width="0.5" stroke-opacity="0.06">
  <path d="M63.6,636.3 Q1.7,613.4 -63.6,640.5" />
  <path d="M66.1,633.8 Q4.2,610.9 -64.6,639.5" />
  <path d="M70.6,629.2 Q1.4,604.4 -71.4,634.3" />
  <path d="M73.1,626.8 Q3.8,601.9 -72.4,633.3" />
  <path d="M78.1,621.7 Q3.1,595.6 -75.4,627.8" />
  <path d="M80.5,619.2 Q5.5,593.1 -76.4,626.8" />
  <path d="M85.9,613.6 Q14.2,588.9 -61.0,620.4" />
  <path d="M88.3,611.1 Q16.6,586.4 -62.0,619.4" />
  <path d="M94.1,605.0 Q18.7,579.8 -60.1,613.1" />
  <path d="M96.5,602.4 Q21.1,577.3 -61.1,612.1" />
  <path d="M102.7,595.8 Q30.4,572.1 -45.2,604.7" />
  <path d="M105.1,593.3 Q32.8,569.6 -46.2,603.7" />
  <path d="M111.7,586.1 Q36.2,562.2 -42.7,596.6" />
  <path d="M114.1,583.6 Q38.6,559.7 -43.7,595.6" />
  <path d="M121.0,575.9 Q43.2,552.1 -37.9,587.9" />
  <path d="M123.4,573.3 Q45.6,549.5 -38.9,586.9" />
  <path d="M130.8,565.0 Q40.6,539.1 -52.8,580.4" />
  <path d="M133.1,562.4 Q42.9,536.5 -53.8,579.4" />
  <path d="M140.8,553.6 Q45.0,527.3 -54.2,571.6" />
  <path d="M143.1,550.9 Q47.3,524.7 -55.2,570.6" />
  <path d="M151.2,541.5 Q54.1,515.9 -46.3,561.6" />
  <path d="M153.5,538.8 Q56.4,513.3 -47.3,560.6" />
  <path d="M161.9,528.8 Q59.0,503.1 -47.1,552.0" />
  <path d="M164.2,526.1 Q61.3,500.4 -48.1,551.0" />
  <path d="M173.0,515.4 Q78.6,492.5 -19.0,538.8" />
  <path d="M175.2,512.7 Q80.8,489.7 -20.0,537.8" />
  <path d="M184.3,501.4 Q88.0,479.1 -11.5,527.2" />
  <path d="M186.5,498.7 Q90.2,476.4 -12.5,526.2" />
  <path d="M196.0,486.8 Q96.1,464.9 -6.9,515.5" />
  <path d="M198.2,484.0 Q98.3,462.1 -7.9,514.5" />
  <path d="M207.9,471.4 Q106.2,450.3 1.4,502.8" />
  <path d="M210.1,468.6 Q108.4,447.5 0.4,501.8" />
  <path d="M220.1,455.3 Q119.6,435.5 16.0,488.5" />
  <path d="M222.3,452.5 Q121.7,432.7 15.0,487.5" />
  <path d="M232.6,438.5 Q139.0,420.7 42.4,471.5" />
  <path d="M234.7,435.7 Q141.1,417.9 41.4,470.5" />
  <path d="M245.4,420.9 Q155.1,404.6 61.8,454.8" />
  <path d="M247.4,418.1 Q157.1,401.8 60.8,453.8" />
  <path d="M258.4,402.6 Q157.7,386.1 54.0,442.3" />
  <path d="M260.4,399.8 Q159.7,383.3 53.0,441.3" />
  <path d="M271.6,383.5 Q174.5,368.5 74.5,424.0" />
  <path d="M273.6,380.7 Q176.5,365.7 73.5,423.0" />
  <path d="M285.1,363.7 Q187.4,349.7 86.8,406.4" />
  <path d="M287.0,360.8 Q189.4,346.8 85.8,405.4" />
  <path d="M298.8,343.0 Q196.9,329.8 92.1,389.7" />
  <path d="M300.7,340.1 Q198.8,326.8 91.1,388.7" />
  <path d="M312.7,321.5 Q227.9,310.6 140.3,362.5" />
  <path d="M314.5,318.6 Q229.8,307.6 139.3,361.5" />
  <path d="M326.7,299.2 Q231.4,288.6 133.3,347.2" />
  <path d="M328.6,296.2 Q233.3,285.6 132.3,346.2" />
  <path d="M341.0,276.0 Q254.0,266.8 164.1,321.9" />
  <path d="M342.8,273.1 Q255.8,263.8 163.1,320.9" />
  <path d="M355.5,252.0 Q271.4,243.8 184.5,298.2" />
  <path d="M357.3,249.0 Q273.2,240.8 183.5,297.2" />
  <path d="M370.1,227.1 Q291.6,220.0 210.3,272.0" />
  <path d="M371.9,224.1 Q293.3,216.9 209.3,271.0" />
  <path d="M384.9,201.3 Q299.6,194.9 211.6,251.7" />
  <path d="M386.6,198.2 Q301.4,191.8 210.6,250.7" />
  <path d="M399.8,174.6 Q319.7,169.1 236.9,223.8" />
  <path d="M401.5,171.5 Q321.4,166.0 235.9,222.8" />
  <path d="M414.9,146.9 Q344.8,142.2 272.1,191.7" />
  <path d="M416.6,143.8 Q346.5,139.2 271.1,190.7" />
  <path d="M430.1,118.3 Q363.4,114.3 294.1,162.5" />
  <path d="M431.8,115.2 Q365.1,111.2 293.1,161.5" />
  <path d="M58.7,641.3 Q77.1,693.3 98.9,800.5" />
  <path d="M56.2,643.8 Q74.6,690.8 99.9,799.5" />
  <path d="M65.7,634.2 Q85.4,689.8 108.6,802.8" />
  <path d="M63.3,636.7 Q83.0,687.3 109.6,801.8" />
  <path d="M73.2,626.7 Q95.9,691.0 122.1,818.3" />
  <path d="M70.7,629.2 Q93.5,688.6 123.1,817.3" />
  <path d="M81.0,618.6 Q104.4,683.5 131.3,811.9" />
  <path d="M78.6,621.1 Q102.0,681.1 132.3,810.9" />
  <path d="M89.3,610.0 Q111.7,670.0 137.4,790.4" />
  <path d="M86.9,612.6 Q109.2,667.6 138.4,789.4" />
  <path d="M97.9,600.9 Q122.9,667.1 151.3,797.7" />
  <path d="M95.5,603.5 Q120.5,664.7 152.3,796.7" />
  <path d="M106.9,591.3 Q135.9,667.2 168.3,813.7" />
  <path d="M104.6,593.8 Q133.5,664.8 169.3,812.7" />
  <path d="M116.3,581.0 Q145.3,654.4 177.5,796.9" />
  <path d="M114.0,583.6 Q142.9,652.0 178.5,795.9" />
  <path d="M126.1,570.2 Q154.8,640.7 186.9,778.6" />
  <path d="M123.8,572.8 Q152.5,638.4 187.9,777.6" />
  <path d="M136.2,558.8 Q170.2,641.3 207.5,799.0" />
  <path d="M133.9,561.5 Q167.9,639.0 208.5,798.0" />
  <path d="M146.7,546.8 Q183.3,633.5 223.2,798.4" />
  <path d="M144.4,549.5 Q181.0,631.2 224.2,797.4" />
  <path d="M157.4,534.1 Q189.8,607.2 225.5,749.8" />
  <path d="M155.2,536.8 Q187.6,604.9 226.5,748.8" />
  <path d="M168.5,520.8 Q207.4,607.6 249.6,773.1" />
  <path d="M166.3,523.6 Q205.2,605.4 250.6,772.1" />
  <path d="M179.9,506.9 Q220.4,594.6 264.1,761.9" />
  <path d="M177.8,509.6 Q218.2,592.4 265.1,760.9" />
  <path d="M191.7,492.2 Q227.9,567.3 267.4,714.0" />
  <path d="M189.5,495.0 Q225.8,565.2 268.4,713.0" />
  <path d="M203.7,476.9 Q243.6,558.0 286.8,714.9" />
  <path d="M201.5,479.7 Q241.5,555.9 287.8,713.9" />
  <path d="M215.9,460.9 Q259.4,547.2 306.1,712.9" />
  <path d="M213.8,463.7 Q257.3,545.1 307.1,711.9" />
  <path d="M228.5,444.1 Q267.0,517.1 308.6,660.8" />
  <path d="M226.4,446.9 Q264.9,515.0 309.6,659.8" />
  <path d="M241.3,426.6 Q282.7,503.2 327.1,653.2" />
  <path d="M239.2,429.4 Q280.6,501.1 328.1,652.2" />
  <path d="M254.3,408.3 Q300.6,492.4 349.8,655.2" />
  <path d="M252.3,411.2 Q298.6,490.4 350.8,654.2" />
  <path d="M267.6,389.3 Q309.8,462.8 354.9,608.2" />
  <path d="M265.7,392.2 Q307.8,460.8 355.9,607.2" />
  <path d="M281.2,369.5 Q323.2,440.5 368.2,582.1" />
  <path d="M279.2,372.4 Q321.2,438.6 369.2,581.1" />
  <path d="M294.9,348.9 Q338.7,421.1 385.4,564.9" />
  <path d="M293.0,351.8 Q336.8,419.2 386.4,563.9" />
  <path d="M308.9,327.4 Q353.6,399.3 401.2,542.7" />
  <path d="M307.0,330.4 Q351.7,397.4 402.2,541.7" />
  <path d="M323.0,305.1 Q365.9,371.6 411.6,506.3" />
  <path d="M321.2,308.1 Q364.0,369.8 412.6,505.3" />
  <path d="M337.4,282.0 Q378.9,344.2 423.2,472.0" />
  <path d="M335.6,285.0 Q377.0,342.4 424.2,471.0" />
  <path d="M351.9,258.0 Q398.0,326.3 446.9,464.6" />
  <path d="M350.1,261.0 Q396.2,324.5 447.9,463.6" />
  <path d="M366.6,233.1 Q406.3,289.0 448.8,406.5" />
  <path d="M364.8,236.2 Q404.5,287.3 449.8,405.5" />
  <path d="M381.4,207.4 Q420.9,261.2 463.0,375.5" />
  <path d="M379.7,210.4 Q419.1,259.5 464.0,374.5" />
  <path d="M396.5,180.7 Q436.1,233.4 478.4,346.1" />
  <path d="M394.8,183.7 Q434.4,231.7 479.4,345.1" />
  <path d="M411.6,153.1 Q447.5,198.6 486.1,299.2" />
  <path d="M409.9,156.1 Q445.8,197.0 487.1,298.2" />
  <path d="M426.9,124.5 Q464.9,172.0 505.5,276.1" />
  <path d="M425.2,127.6 Q463.2,170.4 506.5,275.1" />
</g>
</g>
</svg>
