<svg id="Layer_1" data-name="Layer 1" xmlns="http://www.w3.org/2000/svg" viewBox="0 0 328.51 273.57"><defs><style>.cls-1{fill:#ee402b;}.cls-2{fill:#d05880;}.cls-3{fill:#ffd600;}.cls-4{fill:#0099d7;}.cls-5{fill:#66b361;}.cls-6{fill:#6f98cf;}.cls-7{fill:#231f20;}.cls-8{fill:#404041;}</style></defs><path class="cls-1" d="M369,171.36H356.34c-6.44,0-10.31,3.93-12.42,7.23a15.52,15.52,0,0,0-2.46,8.37v3c0,.14,0,6.24,0,6.24,0,.87-.05,1.8-.1,2.76h.51l11.56-.15A15.65,15.65,0,0,0,369,183.22ZM327.57,187a29.18,29.18,0,0,1,4.65-15.87c5.24-8.19,13.66-13.63,24.12-13.63h26.51v25.75a29.55,29.55,0,0,1-29.5,29.51l-11.45.14H322c4.31-4.3,5.4-10.21,5.53-16.77l.06-6.1Z" transform="translate(-132.65 -102.3)"/><path class="cls-2" d="M190.53,363.62a10.21,10.21,0,1,1-10.21-10.21,10.23,10.23,0,0,1,10.21,10.21" transform="translate(-132.65 -102.3)"/><path class="cls-3" d="M263.16,213.19a58.6,58.6,0,0,1-58.46-58.47V102.3h49a58.56,58.56,0,0,1,58.46,58.46l.28,52.43Z" transform="translate(-132.65 -102.3)"/><path class="cls-4" d="M217.09,335a24.62,24.62,0,1,0,24.64-24.63H217.09Zm-16.29,0V294h40.93A40.92,40.92,0,1,1,200.8,335" transform="translate(-132.65 -102.3)"/><path class="cls-5" d="M165.72,294h24.81v24.82A24.81,24.81,0,1,1,165.72,294" transform="translate(-132.65 -102.3)"/><path class="cls-6" d="M328.26,128.41a11.92,11.92,0,1,0,11.91-11.92,11.95,11.95,0,0,0-11.91,11.92m33.9,0a22,22,0,1,1-22-22,22,22,0,0,1,22,22" transform="translate(-132.65 -102.3)"/><polygon class="cls-7" points="162.13 194.69 162.13 191.74 184.36 191.74 184.36 194.69 174.86 194.69 174.86 220.03 171.63 220.03 171.63 194.69 162.13 194.69"/><path class="cls-7" d="M345.17,319.45a10.49,10.49,0,0,0,3.52-2.5,11,11,0,0,0,2.26-3.68,11.93,11.93,0,0,0,.85-4.53v-.08a12.72,12.72,0,0,0-.81-4.52,11.41,11.41,0,0,0-2.34-3.72,11.55,11.55,0,0,0-3.52-2.51,11.08,11.08,0,0,0-4.48-.93,11.43,11.43,0,0,0-4.45.89,10.56,10.56,0,0,0-3.52,2.51,10.88,10.88,0,0,0-2.26,3.68,11.92,11.92,0,0,0-.85,4.52v.08a12.74,12.74,0,0,0,.81,4.53,11.19,11.19,0,0,0,5.86,6.22,10.93,10.93,0,0,0,4.49.93,10.58,10.58,0,0,0,4.44-.89m-10.39,2.67a13.68,13.68,0,0,1-4.56-3.15,14.45,14.45,0,0,1-2.91-4.65,15.32,15.32,0,0,1-1.05-5.58v-.08a15.26,15.26,0,0,1,1.05-5.57,14.29,14.29,0,0,1,2.95-4.65,13.63,13.63,0,0,1,4.56-3.19,14.14,14.14,0,0,1,5.91-1.22,14.43,14.43,0,0,1,5.86,1.18,13.53,13.53,0,0,1,4.56,3.15,14.45,14.45,0,0,1,2.91,4.65,15.23,15.23,0,0,1,1.05,5.57s0,0,0,.08a15.32,15.32,0,0,1-1.05,5.58,14.13,14.13,0,0,1-2.95,4.65,13.72,13.72,0,0,1-4.57,3.19,14,14,0,0,1-5.89,1.21,14.44,14.44,0,0,1-5.87-1.17" transform="translate(-132.65 -102.3)"/><path class="cls-7" d="M382.62,318.53a10.48,10.48,0,0,0,3.68-2.35,10.25,10.25,0,0,0,2.34-3.51,11.36,11.36,0,0,0,.85-4.41v-.08a11.67,11.67,0,0,0-.81-4.36,10.4,10.4,0,0,0-6.06-5.94,12.4,12.4,0,0,0-4.85-.89h-6.63v22.39h6.63a13.38,13.38,0,0,0,4.85-.85M377.77,294a17.2,17.2,0,0,1,6.1,1,14.66,14.66,0,0,1,4.73,3,13,13,0,0,1,3.11,4.44,14.27,14.27,0,0,1,1.09,5.58v.08a14.27,14.27,0,0,1-1.09,5.58,12.62,12.62,0,0,1-3.07,4.48,14.85,14.85,0,0,1-4.77,3,16.36,16.36,0,0,1-6.1,1.1H368V294Z" transform="translate(-132.65 -102.3)"/><path class="cls-7" d="M415,297.75l-6.46,14.43h12.89Zm1.54-3.71,12.89,28.49H426l-3.32-7.48h-15.4l-3.35,7.48h-3.27L413.54,294Z" transform="translate(-132.65 -102.3)"/><polygon class="cls-7" points="301.24 191.74 305.12 191.74 314.66 205.88 324.28 191.74 328 191.74 316.24 208.79 316.24 220.03 313 220.03 313 208.84 301.24 191.74"/><polygon class="cls-8" points="0 124.1 0 111.12 50.99 111.12 50.99 124.1 32.53 124.1 32.53 176.07 18.46 176.07 18.46 124.1 0 124.1"/><path class="cls-8" d="M205.17,265.39a13,13,0,0,0,4-2.92,12.18,12.18,0,0,0,2.47-4.2,14.22,14.22,0,0,0,.91-5.21v-.18a13.39,13.39,0,0,0-.91-5.12,12.16,12.16,0,0,0-2.65-4.29,13,13,0,0,0-4-3,12.5,12.5,0,0,0-5.3-1.09,13.68,13.68,0,0,0-5.3,1,13.07,13.07,0,0,0-4,2.93,12.15,12.15,0,0,0-2.47,4.2,14.38,14.38,0,0,0-.91,5.2v.19a13.57,13.57,0,0,0,.91,5.11,12.26,12.26,0,0,0,2.65,4.3,13.23,13.23,0,0,0,4.12,3,12,12,0,0,0,5.2,1.1,13.68,13.68,0,0,0,5.3-1m-16,11.06A25.43,25.43,0,0,1,175.3,263a24.3,24.3,0,0,1-2-10v-.18a23.55,23.55,0,0,1,2-9.87,25.26,25.26,0,0,1,5.57-8.13,28,28,0,0,1,8.41-5.48,26.69,26.69,0,0,1,10.59-2,28.26,28.26,0,0,1,10.51,1.92,25.43,25.43,0,0,1,13.88,13.43,24.06,24.06,0,0,1,2,9.95v.19a23.43,23.43,0,0,1-2,9.87,25.17,25.17,0,0,1-5.57,8.12,27.77,27.77,0,0,1-8.4,5.49,26.74,26.74,0,0,1-10.6,2,28.26,28.26,0,0,1-10.51-1.92" transform="translate(-132.65 -102.3)"/><path class="cls-8" d="M235.05,273.53c-2.92-3.2-4.38-7.68-4.38-13.34v-30.7h13.88V255.8q0,4.93,2.19,7.4a7.7,7.7,0,0,0,6.22,2.56,8.22,8.22,0,0,0,6.3-2.47c1.55-1.73,2.38-4.2,2.38-7.49V229.49h13.88v48H261.64v-6.94c-.83,1-1.65,2-2.56,2.92a17,17,0,0,1-3.2,2.56,18.56,18.56,0,0,1-3.84,1.74,15.22,15.22,0,0,1-4.75.64c-5.3,0-9.41-1.65-12.24-4.84" transform="translate(-132.65 -102.3)"/><path class="cls-8" d="M298.54,229.4v9.87a19,19,0,0,1,5.76-8c2.46-2,6.75-1.93,10.86-1.74V244h-.73c-4.66,0-9.22.37-11.87,3.21s-4,7.12-4,13.06v18.09H284.65v-49Z" transform="translate(-132.65 -102.3)"/><rect class="cls-8" x="189.54" y="127.11" width="13.89" height="48.97"/><path class="cls-8" d="M352.43,276.63c-3.65-1.19-6.12-3.1-9.41-5.66l4.93-9.14a34.61,34.61,0,0,0,7.95,4.39,16.59,16.59,0,0,0,6.49,1.46,7.76,7.76,0,0,0,4.39-1,3,3,0,0,0,1.46-2.65v-.18a2.63,2.63,0,0,0-.82-1.92,6.68,6.68,0,0,0-2.19-1.37,30.67,30.67,0,0,0-3.29-1.19c-1.19-.36-2.47-.82-3.84-1.18-1.74-.55-3.38-1.1-5.12-1.74a20.12,20.12,0,0,1-4.75-2.74,13.92,13.92,0,0,1-3.38-4.2,12.3,12.3,0,0,1-1.37-6v-.18a15.18,15.18,0,0,1,1.37-6.58,17.18,17.18,0,0,1,3.84-4.93,15.72,15.72,0,0,1,5.76-3,24.45,24.45,0,0,1,6.94-1,30.93,30.93,0,0,1,9.41,1.46,42.87,42.87,0,0,1,9.86,4.2l-5.3,9.59a58.38,58.38,0,0,0-8.12-3.29,18.93,18.93,0,0,0-6.13-1.28,6.92,6.92,0,0,0-3.83.92,3,3,0,0,0-1.28,2.46V242a2.22,2.22,0,0,0,.82,1.73A8.18,8.18,0,0,0,359,245.2a19.3,19.3,0,0,0,3.11,1.28c1.19.46,2.47.92,3.84,1.37,1.73.55,3.47,1.19,5.2,1.92a23.8,23.8,0,0,1,4.75,2.84,14.67,14.67,0,0,1,3.48,4,11.2,11.2,0,0,1,1.37,5.75v.18a16.46,16.46,0,0,1-1.37,7,13.42,13.42,0,0,1-4,4.93,18,18,0,0,1-5.94,2.83,27.34,27.34,0,0,1-7.4,1,27.68,27.68,0,0,1-9.6-1.74" transform="translate(-132.65 -102.3)"/><path class="cls-8" d="M400.31,229.4v6.94a37.39,37.39,0,0,1,2.56-2.92,16.66,16.66,0,0,1,3.2-2.56,17.72,17.72,0,0,1,3.83-1.73,16.24,16.24,0,0,1,4.84-.64,16,16,0,0,1,8.32,2,13.88,13.88,0,0,1,5.48,5.75,21.08,21.08,0,0,1,7.13-5.75,19,19,0,0,1,8.95-2c5.21,0,9.23,1.55,12.15,4.56s4.39,7.49,4.39,13.43v31.89H447.27V251.05c0-3.29-.73-5.75-2.1-7.4a7.18,7.18,0,0,0-6-2.56,7.7,7.7,0,0,0-6.12,2.47c-1.56,1.74-2.29,4.2-2.29,7.49v27.32H416.85V251.05c0-3.29-.73-5.75-2.11-7.4a7.16,7.16,0,0,0-6-2.56,7.74,7.74,0,0,0-6.13,2.47c-1.55,1.74-2.28,4.2-2.28,7.49v27.32H386.42v-49Z" transform="translate(-132.65 -102.3)"/></svg>