<svg xmlns="http://www.w3.org/2000/svg" viewBox="0 0 440 580">
  <g stroke="#0A1628" fill="none" stroke-linecap="round" stroke-linejoin="round">

    <!-- Central spine -->
    <path d="M 80 540 C 160 400 260 230 380 40" stroke-width="2" opacity="0.1"/>

    <!-- Right leaflets (branch toward lower-right) -->
    <path d="M 117 475 Q 155 498 186 515" stroke-width="1.4" opacity="0.09"/>
    <path d="M 157 406 Q 196 428 225 446" stroke-width="1.4" opacity="0.088"/>
    <path d="M 215 309 Q 250 330 279 347" stroke-width="1.3" opacity="0.082"/>
    <path d="M 261 232 Q 294 252 321 268" stroke-width="1.2" opacity="0.076"/>
    <path d="M 310 152 Q 341 171 366 186" stroke-width="1.1" opacity="0.07"/>
    <path d="M 345 96  Q 374 115 400 130" stroke-width="1"   opacity="0.065"/>

    <!-- Left leaflets (branch toward upper-left) -->
    <path d="M 117 475 Q 78 452 48 435"   stroke-width="1.4" opacity="0.09"/>
    <path d="M 157 406 Q 118 380 89 366"  stroke-width="1.4" opacity="0.088"/>
    <path d="M 215 309 Q 178 285 151 271" stroke-width="1.3" opacity="0.082"/>
    <path d="M 261 232 Q 224 210 201 196" stroke-width="1.2" opacity="0.076"/>
    <path d="M 310 152 Q 274 130 254 118" stroke-width="1.1" opacity="0.07"/>
    <path d="M 345 96  Q 310 74  290 62"  stroke-width="1"   opacity="0.065"/>

  </g>
</svg>
