<svg xmlns="http://www.w3.org/2000/svg" viewBox="0 0 600 320">
  <g stroke="#0A1628" fill="none" stroke-linecap="round" stroke-linejoin="round">

    <!-- Wave 1 — foreground, slightly bolder -->
    <path d="M -20 80 C 40 60 80 100 140 82 C 200 64 240 104 300 86 C 360 68 400 108 460 90 C 520 72 560 112 620 94"
          stroke-width="1.6" opacity="0.09"/>

    <!-- Wave 2 — mid -->
    <path d="M -20 130 C 50 112 90 148 155 132 C 220 116 260 152 320 136 C 380 120 420 156 480 140 C 540 124 580 160 640 144"
          stroke-width="1.3" opacity="0.075"/>

    <!-- Wave 3 -->
    <path d="M -20 178 C 55 162 95 196 160 181 C 225 166 265 200 330 185 C 395 170 435 204 500 189 C 565 174 600 208 660 193"
          stroke-width="1.1" opacity="0.065"/>

    <!-- Wave 4 — background, lightest -->
    <path d="M -20 224 C 60 210 100 242 168 228 C 236 214 276 246 344 232 C 412 218 452 250 516 236 C 580 222 615 254 670 240"
          stroke-width="0.9" opacity="0.055"/>

    <!-- Wave 5 — faintest horizon line -->
    <path d="M -20 268 C 65 256 108 284 178 272 C 248 260 288 288 358 276 C 428 264 468 292 534 280 C 600 268 638 296 680 284"
          stroke-width="0.7" opacity="0.045"/>

    <!-- Small ripple accents -->
    <path d="M 60 52 C 72 46 84 56 96 50"   stroke-width="0.8" opacity="0.06"/>
    <path d="M 200 36 C 212 30 226 40 240 34" stroke-width="0.8" opacity="0.055"/>
    <path d="M 370 20 C 382 14 396 24 410 18" stroke-width="0.7" opacity="0.05"/>
    <path d="M 490 48 C 502 42 514 52 528 46" stroke-width="0.7" opacity="0.05"/>

  </g>
</svg>
